# xmcd CD database file
#
# Track frame offsets:
#	150
#	14355
#	24546
#	37153
#	48166
#	60093
#	72881
#	81823
#	93114
#	105956
#	120893
#	129234
#	139898
#	149790
#	161685
#	176101
#	188633
#	199371
#	208892
#	221666
#	230636
#	244715
#	258373
#	273822
#	294066
#
# Disc length: 4150 seconds
#
# Revision: 1
# Processed by: cddbd v1.5.2PL0 Copyright (c) Steve Scherf et al.
# Submitted via: CDex 1.70beta2
#
DISCID=62103419
DTITLE=Simon and Garfunkel - The Best Of Simon And Garfunkel Disc 1 of 2
DYEAR=2003
DGENRE=Country
TTITLE0=The Sound Of Slience
TTITLE1=Wednesday Morning
TTITLE2=The Sun Is Burning
TTITLE3=Peggy-o
TTITLE4=Benedictus
TTITLE5=He Was My Brother
TTITLE6=We've Got A Groovy Thing Goin
TTITLE7=Homeward Bound
TTITLE8=I Am A Rock
TTITLE9=Kathy's Song
TTITLE10=April Come She Will
TTITLE11=Leaves That Are Green
TTITLE12=Flowers Never Bend With The Rainfall
TTITLE13=The Draging Conversation
TTITLE14=Sarborough Fair
TTITLE15=Patterns
TTITLE16=Cloudy
TTITLE17=For Emily Whenever I May Find Her
TTITLE18=Save The Life Of My Child
TTITLE19=Seven O'clock News
TTITLE20=Sparrow (Live Version)
TTITLE21=A Most Pecular (Live Version)
TTITLE22=Richard Cory (Live Version)
TTITLE23=You Are The One (Simon Solo Version)
TTITLE24=Love (Simon Solo Version)
EXTD=The Best Of Simon And Garfunkel YEAR: 2003
EXTT0=
EXTT1=
EXTT2=
EXTT3=
EXTT4=
EXTT5=
EXTT6=
EXTT7=
EXTT8=
EXTT9=
EXTT10=
EXTT11=
EXTT12=
EXTT13=
EXTT14=
EXTT15=
EXTT16=
EXTT17=
EXTT18=
EXTT19=
EXTT20=
EXTT21=
EXTT22=
EXTT23=
EXTT24=
PLAYORDER=
